<?xml version="1.0" encoding="UTF-8"?>
<svg version="1.1" xmlns="http://www.w3.org/2000/svg" width="1024" height="1024">
<path d="M0 0 C337.92 0 675.84 0 1024 0 C1024 337.92 1024 675.84 1024 1024 C686.08 1024 348.16 1024 0 1024 C0 686.08 0 348.16 0 0 Z " fill="#0C0C0C" transform="translate(0,0)"/>
<path d="M0 0 C1.49311322 0.7085135 2.98021267 1.42979243 4.4621582 2.16137695 C5.26845673 2.54791946 6.07475525 2.93446198 6.90548706 3.3327179 C9.53005503 4.59413122 12.14638187 5.87172351 14.76293945 7.1496582 C16.57939799 8.02638199 18.39637789 8.90202635 20.21386719 9.77661133 C24.69706895 11.93669331 29.17418189 14.10906892 33.64978027 16.28485107 C37.0659498 17.94290789 40.4878931 19.58880012 43.91137695 21.23168945 C48.29519669 23.33631979 52.67692187 25.44514544 57.0559082 27.55981445 C62.84693184 30.35481018 68.64749749 33.12951086 74.45043945 35.8996582 C84.4482053 40.67341366 94.42612459 45.48781865 104.3984375 50.31445312 C110.09322802 53.06902204 115.79382372 55.80958449 121.5168457 58.50512695 C122.49379395 58.96588623 123.47074219 59.42664551 124.47729492 59.90136719 C126.2857344 60.75233227 128.09586588 61.59971424 129.90795898 62.44287109 C130.69928223 62.81532959 131.49060547 63.18778809 132.3059082 63.5715332 C132.99064209 63.89089844 133.67537598 64.21026367 134.38085938 64.53930664 C136.07543945 65.4621582 136.07543945 65.4621582 138.07543945 67.4621582 C137.91040039 69.45288086 137.91040039 69.45288086 137.07543945 71.4621582 C134.50184742 73.10806008 132.04884551 74.48873795 129.32543945 75.8371582 C128.55772217 76.2292749 127.79000488 76.6213916 126.99902344 77.02539062 C118.6992222 81.23178475 110.32478585 85.23910282 101.63793945 88.5871582 C98.64625782 89.7422663 96.53144418 90.82830887 93.82543945 92.6496582 C90.82454428 94.62752093 88.62080203 95.12450462 85.07543945 95.4621582 C85.07543945 96.1221582 85.07543945 96.7821582 85.07543945 97.4621582 C82.43543945 98.1221582 79.79543945 98.7821582 77.07543945 99.4621582 C77.07543945 100.1221582 77.07543945 100.7821582 77.07543945 101.4621582 C25.14575195 127.42700195 25.14575195 127.42700195 23.12402344 128.43701172 C21.72158638 129.13881522 20.32010056 129.84252193 18.91943359 130.54785156 C18.22197021 130.89855713 17.52450684 131.2492627 16.8059082 131.6105957 C16.18095459 131.92561035 15.55600098 132.240625 14.91210938 132.56518555 C11.05878652 134.44702898 7.14586372 136.10535012 3.07543945 137.4621582 C2.41543945 138.4521582 1.75543945 139.4421582 1.07543945 140.4621582 C0.08543945 140.7921582 -0.90456055 141.1221582 -1.92456055 141.4621582 C-3.34482573 144.30268857 -3.05909301 146.69996652 -3.06932068 149.87731934 C-3.07461095 150.87619447 -3.07461095 150.87619447 -3.08000809 151.89524889 C-3.09072221 154.13695997 -3.09438071 156.3786286 -3.09814453 158.62036133 C-3.10444759 160.22330404 -3.11121311 161.826245 -3.1184082 163.42918396 C-3.1330934 166.88592667 -3.14481179 170.34266254 -3.154356 173.79942322 C-3.16977904 179.26096798 -3.19372676 184.72245429 -3.21925354 190.18395996 C-3.29053856 205.71594558 -3.35030625 221.24796447 -3.40136719 236.7800293 C-3.42963038 245.35437608 -3.46498785 253.92866452 -3.50802094 262.50295019 C-3.53485887 267.93660491 -3.55272347 273.3701936 -3.56405818 278.80390167 C-3.57315783 282.17900839 -3.59050669 285.55403457 -3.61023712 288.92909431 C-3.61773609 290.49887392 -3.62179509 292.06867414 -3.62223244 293.6384716 C-3.62330861 295.77480804 -3.63649816 297.91073087 -3.65281677 300.04699707 C-3.65704871 301.2445739 -3.66128065 302.44215073 -3.66564083 303.67601776 C-3.92456055 306.4621582 -3.92456055 306.4621582 -5.92456055 308.4621582 C-11.67280486 308.23970293 -16.48909815 305.51535454 -21.54956055 303.0246582 C-22.52666992 302.55092773 -23.5037793 302.07719727 -24.51049805 301.58911133 C-35.60931088 296.18182386 -46.63312623 290.62048561 -57.66674805 285.08178711 C-66.79065446 280.50521873 -75.94812774 276.01884134 -85.17749023 271.65795898 C-95.40031985 266.80460334 -105.49587116 261.69619588 -115.60302734 256.60766602 C-124.20260815 252.28434185 -132.82267468 248.02873032 -141.63452148 244.14916992 C-145.44101945 242.4193585 -147.84177802 241.11395091 -149.92456055 237.4621582 C-150.31605053 234.34459782 -150.31605053 234.34459782 -150.3391571 230.59889221 C-150.34736491 229.90888199 -150.35557271 229.21887177 -150.36402923 228.50795215 C-150.38769825 226.19641997 -150.38992791 223.88537551 -150.39208984 221.57373047 C-150.40434067 219.91624052 -150.41779297 218.25875907 -150.43235779 216.60128784 C-150.46742092 212.09925735 -150.48266839 207.59737348 -150.49219489 203.09522367 C-150.49876895 200.28299153 -150.50911318 197.47079835 -150.52070045 194.65858269 C-150.56043702 184.84919718 -150.58245901 175.03992913 -150.59033203 165.23046875 C-150.59820812 156.08358109 -150.64747143 146.93753062 -150.71539754 137.7909103 C-150.77167152 129.9394102 -150.79724363 122.088189 -150.79927951 114.23648876 C-150.80112219 109.54618097 -150.81582897 104.85675642 -150.86209679 100.1666584 C-150.90468414 95.75607041 -150.90916305 91.3470747 -150.88430214 86.93636703 C-150.8817119 85.3178055 -150.89280606 83.69915559 -150.9185791 82.0807972 C-151.10162579 69.85226953 -151.10162579 69.85226953 -148.20961094 66.43680668 C-146.13614818 65.10838878 -144.2445447 64.26689223 -141.92456055 63.4621582 C-140.68340698 62.82923339 -139.44891473 62.18283861 -138.22558594 61.51611328 C-136.97229691 60.89640926 -135.71693239 60.28088823 -134.4597168 59.66918945 C-133.05221611 58.97491648 -131.64483032 58.28041053 -130.23754883 57.58569336 C-129.52350891 57.23476624 -128.80946899 56.88383911 -128.0737915 56.52227783 C-124.61712941 54.81726082 -121.17583108 53.08190712 -117.7331543 51.34887695 C-104.60728166 44.75798299 -91.47847869 38.19312062 -78.19677734 31.92041016 C-66.58793189 26.40356856 -55.1248888 20.58711863 -43.64672852 14.8046875 C-39.57421655 12.75505974 -35.49536746 10.71865623 -31.41015625 8.69445801 C-29.7087538 7.85094275 -28.0087867 7.00452782 -26.31005859 6.15563965 C-23.73441834 4.87282632 -21.15111021 3.60690068 -18.56518555 2.3449707 C-17.78552429 1.95381073 -17.00586304 1.56265076 -16.20257568 1.15963745 C-10.31011506 -1.68306075 -6.20194598 -2.63932978 0 0 Z " fill="#E7E7E7" transform="translate(517.924560546875,349.537841796875)"/>
<path d="M0 0 C0.33 0 0.66 0 1 0 C1.11673004 21.96571554 1.20493754 43.93138005 1.25906086 65.89734268 C1.28485769 76.09621795 1.32003648 86.29490066 1.37719727 96.49365234 C1.42698695 105.38146171 1.45928025 114.26913165 1.47044247 123.1570766 C1.47696877 127.86454954 1.49233795 132.57162356 1.52865028 137.27896881 C1.5625398 141.70803653 1.57306731 146.13654027 1.56553841 150.56572533 C1.56691612 152.1927592 1.57689085 153.81981156 1.59602737 155.44673347 C1.62085742 157.66621485 1.61494466 159.88355897 1.60127258 162.10308838 C1.60818603 163.96695379 1.60818603 163.96695379 1.61523914 165.86847305 C1 169 1 169 -1.40598774 171.3470726 C-2.26201179 171.89253864 -3.11803583 172.43800468 -4 173 C-4.69480469 173.4434375 -5.38960937 173.886875 -6.10546875 174.34375 C-9.85269821 176.42476298 -13.55642376 178.28155841 -17.5625 179.8125 C-24.23866754 182.38184423 -30.53541707 185.69424001 -36.90332031 188.93554688 C-40.26071688 190.64004723 -43.63074687 192.31909499 -47 194 C-48.34641924 194.67304693 -49.69277347 195.3462239 -51.0390625 196.01953125 C-58.6484375 199.82421875 -58.6484375 199.82421875 -60.49414062 200.74682617 C-61.75611953 201.37797943 -63.01783519 202.00965933 -64.27929688 202.6418457 C-68.68244061 204.84713286 -73.093325 207.03624971 -77.5078125 209.21875 C-79.83854725 210.37498875 -82.1692764 211.53123878 -84.5 212.6875 C-85.61036621 213.2343042 -86.72073242 213.7811084 -87.86474609 214.34448242 C-93.22511767 217.00845659 -98.38468863 219.69845741 -103.29882812 223.12817383 C-105 224 -105 224 -109 224 C-109 224.66 -109 225.32 -109 226 C-112.08809695 227.76462683 -113.23312136 228 -117 228 C-117 228.66 -117 229.32 -117 230 C-118.32 230 -119.64 230 -121 230 C-121 230.66 -121 231.32 -121 232 C-122.91149668 233.0098473 -124.82941569 234.00754495 -126.75 235 C-127.81734375 235.556875 -128.8846875 236.11375 -129.984375 236.6875 C-133 238 -133 238 -137 238 C-137 238.66 -137 239.32 -137 240 C-140.21451269 241.60725635 -143.43612536 241.05748185 -147 241 C-146.35042643 240.63965416 -145.70085285 240.27930832 -145.03159523 239.90804291 C-142.72077316 238.12120398 -142.72077316 238.12120398 -142.49777794 235.09360504 C-142.4966884 233.89824883 -142.49559887 232.70289261 -142.49447632 231.47131348 C-142.4883862 230.80524786 -142.48229608 230.13918225 -142.47602141 229.45293283 C-142.46037853 227.21631597 -142.47322566 224.98076347 -142.48583984 222.74414062 C-142.48038107 221.1426679 -142.47314085 219.54120039 -142.46424866 217.93974304 C-142.44889154 214.48892852 -142.44611764 211.03841139 -142.45301437 207.58757019 C-142.46377876 202.13398564 -142.4464456 196.68071326 -142.42520142 191.22717285 C-142.39491807 182.6035026 -142.38324436 173.97992448 -142.37962496 165.35620546 C-142.37298019 149.90829827 -142.34403999 134.46045475 -142.2945286 119.01262617 C-142.27800097 113.58841527 -142.27261964 108.16433834 -142.27611899 102.74010468 C-142.27655522 99.36934057 -142.26900363 95.99862729 -142.25944328 92.62787819 C-142.25675458 91.06173215 -142.2575222 89.4955759 -142.26195335 87.92943382 C-142.26757408 85.7957208 -142.26107101 83.66237771 -142.2515564 81.52868652 C-142.25105317 79.7356522 -142.25105317 79.7356522 -142.25053978 77.90639496 C-142 75 -142 75 -140 72 C-138.515 71.505 -138.515 71.505 -137 71 C-136.34 70.01 -135.68 69.02 -135 68 C-133.046875 67.19140625 -133.046875 67.19140625 -130.75 66.5625 C-126.56131684 65.41422307 -123.58879401 63.42968041 -120 61 C-117.65621615 59.75033347 -115.32055743 58.54200104 -112.9375 57.375 C-112.33873047 57.0759375 -111.73996094 56.776875 -111.12304688 56.46875 C-108.63387167 55.23643106 -106.1504434 54.05940462 -103.56640625 53.0390625 C-99.93664429 51.56947851 -96.48887741 49.77393602 -93 48 C-91.73749463 47.3674597 -90.47448465 46.73592544 -89.2109375 46.10546875 C-88.58590332 45.79287109 -87.96086914 45.48027344 -87.31689453 45.15820312 C-85.98219184 44.49101958 -84.64721565 43.82438298 -83.31201172 43.15820312 C-79.84234157 41.42617978 -76.37726054 39.68615104 -72.921875 37.92578125 C-72.2820166 37.60134033 -71.6421582 37.27689941 -70.98291016 36.94262695 C-69.21904168 36.04771287 -67.45712058 35.14896357 -65.6953125 34.25 C-63 33 -63 33 -61 33 C-61 32.34 -61 31.68 -61 31 C-57.91190305 29.23537317 -56.76687864 29 -53 29 C-53 28.34 -53 27.68 -53 27 C-52.071875 26.62875 -51.14375 26.2575 -50.1875 25.875 C-46.89272073 24.47339027 -43.80927028 22.81406145 -40.6875 21.0625 C-37.2826431 19.17552646 -33.95193999 17.50357575 -30.3125 16.125 C-23.64005453 13.58413277 -17.34086472 10.26237055 -10.99511719 7.0078125 C-9.59224719 6.29916745 -8.18050094 5.6079568 -6.76269531 4.9296875 C-6.03920898 4.58164062 -5.31572266 4.23359375 -4.5703125 3.875 C-3.91047363 3.56304687 -3.25063477 3.25109375 -2.57080078 2.9296875 C-0.81533479 2.08228301 -0.81533479 2.08228301 0 0 Z " fill="#323232" transform="translate(656,418)"/>
<path d="M0 0 C1.49311322 0.7085135 2.98021267 1.42979243 4.4621582 2.16137695 C5.26845673 2.54791946 6.07475525 2.93446198 6.90548706 3.3327179 C9.53005503 4.59413122 12.14638187 5.87172351 14.76293945 7.1496582 C16.57939799 8.02638199 18.39637789 8.90202635 20.21386719 9.77661133 C24.69706895 11.93669331 29.17418189 14.10906892 33.64978027 16.28485107 C37.0659498 17.94290789 40.4878931 19.58880012 43.91137695 21.23168945 C48.29519669 23.33631979 52.67692187 25.44514544 57.0559082 27.55981445 C62.84693184 30.35481018 68.64749749 33.12951086 74.45043945 35.8996582 C80.71188831 38.88938872 86.96819182 41.88946378 93.21606445 44.9074707 C94.13637955 45.35188759 94.13637955 45.35188759 95.07528687 45.80528259 C98.18370836 47.30685894 101.29091742 48.81087308 104.39624023 50.31884766 C110.08995821 53.08033557 115.79429631 55.80869554 121.55200195 58.43481445 C122.53346191 58.88655029 123.51492188 59.33828613 124.52612305 59.80371094 C126.34379768 60.63708924 128.16682417 61.45892748 129.99584961 62.26708984 C131.18766846 62.81610962 131.18766846 62.81610962 132.40356445 63.3762207 C133.09353516 63.6851123 133.78350586 63.99400391 134.49438477 64.31225586 C136.07543945 65.4621582 136.07543945 65.4621582 136.80493164 67.5925293 C136.89419922 68.20950684 136.9834668 68.82648438 137.07543945 69.4621582 C136.45797852 69.70450195 135.84051758 69.9468457 135.2043457 70.1965332 C134.35743164 70.53168945 133.51051758 70.8668457 132.63793945 71.2121582 C131.81422852 71.53700195 130.99051758 71.8618457 130.1418457 72.1965332 C121.27733835 75.8552598 112.81250881 80.12497903 104.32543945 84.5871582 C101.93626031 85.84257598 99.54541284 87.09462599 97.15356445 88.3449707 C95.58203613 89.17085693 95.58203613 89.17085693 93.97875977 90.01342773 C91.37927675 91.31054615 88.77893306 92.40611504 86.07543945 93.4621582 C83.3522676 94.90407368 80.67400796 96.41454972 77.98950195 97.92700195 C74.75315806 99.63193915 71.43923993 101.02625637 68.07543945 102.4621582 C64.98595515 103.96294094 61.93672445 105.54261227 58.88598633 107.12036133 C54.28727647 109.4621582 54.28727647 109.4621582 52.07543945 109.4621582 C52.07543945 110.1221582 52.07543945 110.7821582 52.07543945 111.4621582 C50.11894549 112.29980088 48.16018389 113.13214879 46.20043945 113.9621582 C44.56461914 114.65825195 44.56461914 114.65825195 42.89575195 115.3684082 C40.07543945 116.4621582 40.07543945 116.4621582 38.07543945 116.4621582 C38.07543945 117.1221582 38.07543945 117.7821582 38.07543945 118.4621582 C36.78534302 118.96619588 35.49330156 119.46525746 34.20043945 119.9621582 C33.48114258 120.2405957 32.7618457 120.5190332 32.02075195 120.8059082 C30.07543945 121.4621582 30.07543945 121.4621582 28.07543945 121.4621582 C28.07543945 122.1221582 28.07543945 122.7821582 28.07543945 123.4621582 C25.43543945 124.1221582 22.79543945 124.7821582 20.07543945 125.4621582 C20.07543945 126.1221582 20.07543945 126.7821582 20.07543945 127.4621582 C17.43543945 128.1221582 14.79543945 128.7821582 12.07543945 129.4621582 C12.07543945 130.1221582 12.07543945 130.7821582 12.07543945 131.4621582 C10.09543945 131.7921582 8.11543945 132.1221582 6.07543945 132.4621582 C6.07543945 133.1221582 6.07543945 133.7821582 6.07543945 134.4621582 C5.08543945 134.8746582 4.09543945 135.2871582 3.07543945 135.7121582 C-1.01441105 137.46017202 -4.96101537 139.44561767 -8.92456055 141.4621582 C-8.92456055 140.8021582 -8.92456055 140.1421582 -8.92456055 139.4621582 C-10.34768555 139.2455957 -10.34768555 139.2455957 -11.79956055 139.0246582 C-14.92456055 138.4621582 -14.92456055 138.4621582 -16.92456055 137.4621582 C-16.92456055 136.8021582 -16.92456055 136.1421582 -16.92456055 135.4621582 C-20.88456055 134.4721582 -20.88456055 134.4721582 -24.92456055 133.4621582 C-24.92456055 132.8021582 -24.92456055 132.1421582 -24.92456055 131.4621582 C-25.75342773 131.21208008 -26.58229492 130.96200195 -27.4362793 130.7043457 C-31.39465013 129.29475788 -35.00837326 127.50825238 -38.73706055 125.5871582 C-43.73272421 123.04842487 -48.73033286 120.60407886 -53.8737793 118.3762207 C-59.14372302 116.0273315 -64.25257261 113.3160596 -69.3894043 110.69262695 C-75.4618589 107.6071987 -81.46152012 104.65959195 -87.92456055 102.4621582 C-87.92456055 101.8021582 -87.92456055 101.1421582 -87.92456055 100.4621582 C-88.51624023 100.26879883 -89.10791992 100.07543945 -89.7175293 99.8762207 C-93.83922505 98.51801101 -97.91961295 97.14165236 -101.92456055 95.4621582 C-101.92456055 94.8021582 -101.92456055 94.1421582 -101.92456055 93.4621582 C-104.56456055 92.8021582 -107.20456055 92.1421582 -109.92456055 91.4621582 C-109.92456055 90.8021582 -109.92456055 90.1421582 -109.92456055 89.4621582 C-110.75793945 89.2765332 -110.75793945 89.2765332 -111.6081543 89.0871582 C-120.91917303 86.57491032 -129.78359541 81.69599206 -138.42480469 77.49731445 C-139.20847412 77.11961914 -139.99214355 76.74192383 -140.79956055 76.3527832 C-141.49823242 76.01279297 -142.1969043 75.67280273 -142.91674805 75.32250977 C-145.20300514 74.27979846 -145.20300514 74.27979846 -148.92456055 73.4621582 C-148.92456055 82.3721582 -148.92456055 91.2821582 -148.92456055 100.4621582 C-149.25456055 100.4621582 -149.58456055 100.4621582 -149.92456055 100.4621582 C-150.12290818 95.99666637 -150.26773905 91.53352795 -150.36401367 87.06494141 C-150.40415361 85.54658342 -150.45868384 84.02853298 -150.52807617 82.51123047 C-151.07828114 70.16802934 -151.07828114 70.16802934 -148.6706543 66.6081543 C-146.50426529 65.18750305 -144.35247969 64.37528419 -141.92456055 63.4621582 C-140.10639753 62.55174864 -138.2889216 61.63976088 -136.48191833 60.70739746 C-134.41101181 59.64418408 -132.32723624 58.61145865 -130.23754883 57.58569336 C-126.05701967 55.53110084 -121.89381701 53.44333846 -117.7331543 51.34887695 C-104.60728166 44.75798299 -91.47847869 38.19312062 -78.19677734 31.92041016 C-66.58793189 26.40356856 -55.1248888 20.58711863 -43.64672852 14.8046875 C-39.57421655 12.75505974 -35.49536746 10.71865623 -31.41015625 8.69445801 C-29.7087538 7.85094275 -28.0087867 7.00452782 -26.31005859 6.15563965 C-23.73441834 4.87282632 -21.15111021 3.60690068 -18.56518555 2.3449707 C-17.78552429 1.95381073 -17.00586304 1.56265076 -16.20257568 1.15963745 C-10.31011506 -1.68306075 -6.20194598 -2.63932978 0 0 Z " fill="#EAEAEA" transform="translate(517.924560546875,349.537841796875)"/>
<path d="M0 0 C0.33 0.99 0.66 1.98 1 3 C-3.11052853 5.56013576 -7.35090977 7.73385339 -11.6875 9.875 C-13.12115581 10.58581234 -14.55474971 11.29674957 -15.98828125 12.0078125 C-16.67873535 12.34973633 -17.36918945 12.69166016 -18.08056641 13.04394531 C-20.52197621 14.25999222 -22.94715943 15.5071309 -25.375 16.75 C-28.61022524 18.37850564 -31.86933052 19.76340001 -35.25 21.0625 C-38.3031222 22.23604385 -40.49591483 23.33378882 -43.25 25.1875 C-46.25089518 27.16536273 -48.45463742 27.66234642 -52 28 C-52 28.66 -52 29.32 -52 30 C-54.64 30.66 -57.28 31.32 -60 32 C-60 32.66 -60 33.32 -60 34 C-111.9296875 59.96484375 -111.9296875 59.96484375 -113.95141602 60.97485352 C-115.35385307 61.67665702 -116.75533889 62.38036373 -118.15600586 63.08569336 C-118.85346924 63.43639893 -119.55093262 63.78710449 -120.26953125 64.1484375 C-121.20696167 64.62095947 -121.20696167 64.62095947 -122.16333008 65.10302734 C-126.01665294 66.98487078 -129.92957574 68.64319191 -134 70 C-134.66 70.99 -135.32 71.98 -136 73 C-137.485 73.495 -137.485 73.495 -139 74 C-140.42105909 76.84211818 -140.14112656 79.24953973 -140.15821838 82.42861938 C-140.16315636 83.09594727 -140.16809434 83.76327515 -140.17318195 84.4508251 C-140.18859621 86.69719462 -140.19692815 88.94353548 -140.20532227 91.18994141 C-140.21489771 92.7961299 -140.22490759 94.40231586 -140.23532104 96.00849915 C-140.26241237 100.37805987 -140.283399 104.74763144 -140.30332303 109.11722994 C-140.32515656 113.6803362 -140.3525581 118.24340886 -140.37937927 122.80648804 C-140.42934184 131.45144069 -140.47426742 140.09641195 -140.51740164 148.74140108 C-140.56674359 158.58166933 -140.62167298 168.42190388 -140.67708123 178.26213956 C-140.79095598 198.50806165 -140.89778303 218.75401591 -141 239 C-141.66 239.33 -142.32 239.66 -143 240 C-143.11676527 218.44270789 -143.20495485 196.88546788 -143.25906086 175.32792377 C-143.28485021 165.31852464 -143.32001472 155.30932191 -143.37719727 145.30004883 C-143.42700983 136.57666891 -143.4592857 127.85343122 -143.47044247 119.12991303 C-143.47696488 114.5101541 -143.49230944 109.89080208 -143.52865028 105.27117348 C-143.56257594 100.92335668 -143.57305999 96.57611461 -143.56553841 92.22817802 C-143.5669145 90.63220217 -143.57686781 89.0362072 -143.59602737 87.44034576 C-143.62091412 85.260616 -143.61492413 83.08305465 -143.60127258 80.90327454 C-143.60588155 79.68374242 -143.61049051 78.4642103 -143.61523914 77.20772266 C-142.82584846 73.09201188 -141.19099298 71.62120098 -138 69 C-135.64231675 67.91920517 -133.56224519 67.55264112 -131 67 C-131 66.34 -131 65.68 -131 65 C-128.03 64.505 -128.03 64.505 -125 64 C-125 63.34 -125 62.68 -125 62 C-122.36 61.34 -119.72 60.68 -117 60 C-117 59.34 -117 58.68 -117 58 C-114.36 57.34 -111.72 56.68 -109 56 C-109 55.34 -109 54.68 -109 54 C-105.7 53.01 -102.4 52.02 -99 51 C-99 50.34 -99 49.68 -99 49 C-94.35796103 46.46690767 -90.34844008 44.53484401 -85 44 C-85 43.34 -85 42.68 -85 42 C-69.34234259 34.08471797 -69.34234259 34.08471797 -64.0625 31.8125 C-61.22381482 30.58755143 -58.55753829 29.22462915 -55.875 27.6875 C-52.06871167 25.51902937 -48.17764892 23.68242962 -44.1875 21.875 C-37.85363625 19.00249574 -31.80902493 15.72278631 -25.75 12.3125 C-18.38622535 8.18273587 -11.12506062 4.27245978 -2.78125 2.5390625 C-2.1934375 2.36117188 -1.605625 2.18328125 -1 2 C-0.67 1.34 -0.34 0.68 0 0 Z " fill="#AEADAD" transform="translate(655,417)"/>
<path d="M0 0 C12.53805344 5.82687874 24.93271336 11.91990487 37.27197266 18.15454102 C44.73771876 21.91849673 52.25336128 25.56305604 59.8046875 29.15234375 C72.75367995 35.31426929 85.56477851 41.74325985 98.375 48.1875 C112.5062458 55.29587699 126.634455 62.37482273 141 69 C141 70.32 141 71.64 141 73 C140.01 73.33 139.02 73.66 138 74 C138 73.34 138 72.68 138 72 C136.576875 71.7834375 136.576875 71.7834375 135.125 71.5625 C132 71 132 71 130 70 C130 69.34 130 68.68 130 68 C126.04 67.01 126.04 67.01 122 66 C122 65.34 122 64.68 122 64 C121.17113281 63.74992187 120.34226562 63.49984375 119.48828125 63.2421875 C115.52991042 61.83259968 111.91618729 60.04609417 108.1875 58.125 C103.19183633 55.58626667 98.19422768 53.14192065 93.05078125 50.9140625 C87.78083752 48.5651733 82.67198794 45.85390139 77.53515625 43.23046875 C71.46270164 40.1450405 65.46304042 37.19743374 59 35 C59 34.34 59 33.68 59 33 C58.40832031 32.80664062 57.81664062 32.61328125 57.20703125 32.4140625 C53.0853355 31.05585281 49.0049476 29.67949415 45 28 C45 27.34 45 26.68 45 26 C42.36 25.34 39.72 24.68 37 24 C37 23.34 37 22.68 37 22 C36.44441406 21.87625 35.88882813 21.7525 35.31640625 21.625 C26.90355154 19.35508979 18.86701436 15.06549469 11 11.375 C10.17491943 10.99085938 9.34983887 10.60671875 8.49975586 10.2109375 C7.71608643 9.8396875 6.93241699 9.4684375 6.125 9.0859375 C5.42632812 8.7564209 4.72765625 8.4269043 4.0078125 8.08740234 C1.83131666 6.90864353 -0.05638911 5.52797885 -2 4 C-1.34 2.68 -0.68 1.36 0 0 Z " fill="#FCFCFC" transform="translate(371,417)"/>
<path d="M0 0 C2.536875 -0.061875 5.07375 -0.12375 7.6875 -0.1875 C8.47729248 -0.21481201 9.26708496 -0.24212402 10.08081055 -0.27026367 C14.62090198 -0.3236495 17.37900572 0.25136763 21 3 C22 4 22 4 22.02734375 6.21484375 C21.96753086 8.02743441 21.90503818 9.83993867 21.83984375 11.65234375 C21.75476747 14.19299439 21.75476747 14.19299439 24 16 C24.5 19.375 24.5 19.375 24 23 C19.06203013 27.46468202 14.90564342 27.50840623 8.625 27.25 C4.355625 27.12625 4.355625 27.12625 0 27 C0 18.09 0 9.18 0 0 Z " fill="#F3F3F3" transform="translate(504,891)"/>
<path d="M0 0 C2.64 0 5.28 0 8 0 C8.02505615 0.57032959 8.0501123 1.14065918 8.07592773 1.72827148 C8.19156549 4.29826157 8.31443624 6.86785527 8.4375 9.4375 C8.47681641 10.33533203 8.51613281 11.23316406 8.55664062 12.15820312 C8.61948242 13.43920898 8.61948242 13.43920898 8.68359375 14.74609375 C8.72025146 15.53685303 8.75690918 16.3276123 8.79467773 17.14233398 C8.80563257 19.01401441 8.80563257 19.01401441 10 20 C12.45809998 20.2500773 12.45809998 20.2500773 15 20 C18.02093215 16.97906785 17.46676834 13.43627928 17.625 9.375 C17.66367187 8.57320312 17.70234375 7.77140625 17.7421875 6.9453125 C17.83653931 4.96392444 17.91936215 2.98199355 18 1 C20.31 1 22.62 1 25 1 C25.08120751 3.89640118 25.14059421 6.79050912 25.1875 9.6875 C25.21263672 10.50412109 25.23777344 11.32074219 25.26367188 12.16210938 C25.32178809 16.94701082 25.17342599 20.15623234 22 24 C18.86219842 27.07032198 16.39871306 27.48047832 12.0625 27.5625 C6.68437077 27.43132612 6.68437077 27.43132612 4.140625 25.828125 C-0.51869409 20.51101969 -0.14006222 14.36381754 -0.0625 7.6875 C-0.05798828 6.94693359 -0.05347656 6.20636719 -0.04882812 5.44335938 C-0.03712175 3.62887101 -0.01918898 1.81442466 0 0 Z " fill="#F0F0F0" transform="translate(474,891)"/>
<path d="M0 0 C2.46565546 1.07813832 3.94104301 2.21928044 6 4 C5.75 5.875 5.75 5.875 5 8 C2.9375 9.25 2.9375 9.25 1 10 C0.62875 9.505 0.2575 9.01 -0.125 8.5 C-1.99636794 6.73485983 -1.99636794 6.73485983 -5 6.625 C-7.91801612 6.79612692 -7.91801612 6.79612692 -9.875 8.0625 C-11.64273274 11.1069286 -11.36823916 13.5631012 -11 17 C-10.01951062 19.06402685 -10.01951062 19.06402685 -8 20 C-3.78715363 20.45791808 -0.81208094 19.79392044 3 18 C3.99 18.99 4.98 19.98 6 21 C4.63016497 24.16115776 4.0109362 24.9927092 1 27 C-3.87286447 27.74090337 -8.89563053 28.16078586 -13.30859375 25.7265625 C-16.47482405 23.02769676 -18.78521656 20.87782096 -19.2734375 16.609375 C-19.5813768 7.93969925 -19.5813768 7.93969925 -16.6875 4.4375 C-11.24017513 -0.50309697 -7.15163119 -0.87612576 0 0 Z " fill="#F2F2F2" transform="translate(464,891)"/>
<path d="M0 0 C2.58603823 1.40342872 3.97272955 2.80835627 6 5 C5.67 5.99 5.34 6.98 5 8 C2.625 8.625 2.625 8.625 0 9 C-0.66 8.34 -1.32 7.68 -2 7 C-5.07108055 6.6732893 -7.15050101 6.51861724 -9.875 8.0625 C-11.62409203 11.07482516 -11.30401551 13.59502627 -11 17 C-10.34 17.99 -9.68 18.98 -9 20 C-4.43771074 20.36792655 -0.92757913 20.61838609 3 18 C3.99 18.99 4.98 19.98 6 21 C5.05903966 23.35240085 4.42447345 24.72657791 2.265625 26.1171875 C-0.45170561 27.17600943 -2.58848174 27.26599735 -5.5 27.25 C-6.4384375 27.25515625 -7.376875 27.2603125 -8.34375 27.265625 C-11.1075368 26.98924632 -12.68584359 26.50923244 -15 25 C-18.56462895 20.24716141 -19.74941728 16.39555482 -19.53125 10.44140625 C-18.63248169 6.31103718 -16.16667612 3.6826505 -13 1 C-9.04155735 -0.97922132 -4.30261264 -0.56884049 0 0 Z " fill="#F2F1F2" transform="translate(563,891)"/>
<path d="M0 0 C0.66 0.33 1.32 0.66 2 1 C1.83826325 1.52244923 1.67652651 2.04489845 1.50988865 2.58317947 C0.86248819 5.65179204 0.85867769 8.53128549 0.84178162 11.66912842 C0.83684364 12.33816515 0.83190566 13.00720189 0.82681805 13.69651246 C0.811469 15.93666991 0.80308949 18.17679875 0.79467773 20.41699219 C0.78509717 22.02347566 0.77508698 23.62995661 0.76467896 25.23643494 C0.73764316 29.59761316 0.71662641 33.95880219 0.69667697 38.32001781 C0.67480926 42.87777361 0.6474244 47.43549614 0.62062073 51.9932251 C0.57070448 60.62394492 0.52576167 69.25468321 0.48259836 77.88543916 C0.43321688 87.71124358 0.37830212 97.53701463 0.32291877 107.36278677 C0.20911511 127.57516009 0.10227253 147.78756527 0 168 C-0.66 168.33 -1.32 168.66 -2 169 C-2.04667993 147.40811044 -2.08196916 125.81622918 -2.10362434 104.22429943 C-2.11394559 94.19923912 -2.12802209 84.17421013 -2.15087891 74.14916992 C-2.17078686 65.41335842 -2.18371026 56.6775696 -2.18817699 47.94173604 C-2.19078878 43.3143666 -2.19694516 38.68706205 -2.21146011 34.05971336 C-2.22500306 29.70710555 -2.22922933 25.35458954 -2.22621536 21.00196266 C-2.226767 19.40194831 -2.23076399 17.80193099 -2.23841095 16.20193481 C-2.24832088 14.0220978 -2.24598353 11.84261014 -2.24050903 9.6627655 C-2.24235262 8.4413898 -2.24419621 7.2200141 -2.24609566 5.96162701 C-2 3 -2 3 0 0 Z " fill="#A7A6A6" transform="translate(514,488)"/>
<path d="M0 0 C-51.9296875 25.96484375 -51.9296875 25.96484375 -53.95141602 26.97485352 C-55.35385307 27.67665702 -56.75533889 28.38036373 -58.15600586 29.08569336 C-58.85346924 29.43639893 -59.55093262 29.78710449 -60.26953125 30.1484375 C-60.89448486 30.46345215 -61.51943848 30.7784668 -62.16333008 31.10302734 C-66.01665294 32.98487078 -69.92957574 34.64319191 -74 36 C-74.66 36.99 -75.32 37.98 -76 39 C-78.125 39.6875 -78.125 39.6875 -80 40 C-79.4375 37.625 -79.4375 37.625 -78 35 C-74.375 33.6875 -74.375 33.6875 -71 33 C-71 32.34 -71 31.68 -71 31 C-69.02 30.67 -67.04 30.34 -65 30 C-65 29.34 -65 28.68 -65 28 C-62.36 27.34 -59.72 26.68 -57 26 C-57 25.34 -57 24.68 -57 24 C-54.36 23.34 -51.72 22.68 -49 22 C-49 21.34 -49 20.68 -49 20 C-45.7 19.01 -42.4 18.02 -39 17 C-39 16.34 -39 15.68 -39 15 C-32.54031293 11.39748221 -26.20773928 9.58570264 -19 8 C-19 7.34 -19 6.68 -19 6 C-18.18015625 5.66226562 -17.3603125 5.32453125 -16.515625 4.9765625 C-15.43796875 4.53054688 -14.3603125 4.08453125 -13.25 3.625 C-12.18265625 3.18414062 -11.1153125 2.74328125 -10.015625 2.2890625 C-7.09113874 1.10069712 -7.09113874 1.10069712 -4.796875 -0.2265625 C-3 -1 -3 -1 0 0 Z " fill="#A2A1A2" transform="translate(595,451)"/>
<path d="M0 0 C0.33 0 0.66 0 1 0 C1 54.78 1 109.56 1 166 C-0.98 166 -2.96 166 -5 166 C-4.026056 165.46010579 -4.026056 165.46010579 -3.03243637 164.90930462 C-0.7203688 163.12024166 -0.7203688 163.12024166 -0.49219131 160.08522511 C-0.48850414 158.88597243 -0.48481697 157.68671976 -0.48101807 156.4511261 C-0.47351681 155.78294379 -0.46601556 155.11476148 -0.458287 154.42633122 C-0.43795359 152.18275176 -0.44612279 149.9401775 -0.45410156 147.6965332 C-0.44536954 146.09018958 -0.43488506 144.48385467 -0.42277527 142.87753296 C-0.39484885 138.51207851 -0.39151204 134.14690694 -0.39249516 129.78137612 C-0.38937173 125.22090033 -0.36376549 120.66055302 -0.34051514 116.10014343 C-0.29990772 107.46229065 -0.27960331 98.82451344 -0.26654124 90.18657988 C-0.25068722 80.35349767 -0.21227839 70.52054438 -0.17194796 60.68753684 C-0.08948415 40.45840038 -0.03543257 20.2292699 0 0 Z " fill="#636364" transform="translate(514,493)"/>
<path d="M0 0 C0.33 0 0.66 0 1 0 C1 54.78 1 109.56 1 166 C-0.32 165.67 -1.64 165.34 -3 165 C-2.01 164.01 -2.01 164.01 -1 163 C-0.68386402 160.07208684 -0.68386402 160.07208684 -0.7215271 156.57138062 C-0.7128385 155.57038879 -0.7128385 155.57038879 -0.70397437 154.5491749 C-0.68690658 152.3027545 -0.68409212 150.0565387 -0.68115234 147.81005859 C-0.67185882 146.20386752 -0.66169102 144.59768129 -0.65071106 142.99150085 C-0.62333196 138.62193426 -0.60823832 134.25240004 -0.59528303 129.88277006 C-0.57968697 125.3196461 -0.5528856 120.7565886 -0.5272522 116.19351196 C-0.4804018 107.54856587 -0.44368807 98.90360737 -0.41057932 90.25859892 C-0.37240208 80.41831184 -0.32298047 70.57809141 -0.27259517 60.73786044 C-0.16918223 40.49195613 -0.07995237 20.24600965 0 0 Z " fill="#D3D3D3" transform="translate(511,492)"/>
<path d="M0 0 C1.98 0 3.96 0 6 0 C6 8.58 6 17.16 6 26 C4.02 26 2.04 26 0 26 C0 17.42 0 8.84 0 0 Z " fill="#FBFBFB" transform="translate(533,892)"/>
<path d="M0 0 C0.33 0.99 0.66 1.98 1 3 C-3.2254832 5.63782611 -7.60218611 7.85891688 -12.0625 10.0625 C-12.76955078 10.41376953 -13.47660156 10.76503906 -14.20507812 11.12695312 C-15.55660269 11.79827378 -16.90924608 12.46734833 -18.26318359 13.13378906 C-19.61928809 13.81012569 -20.95957519 14.5182033 -22.29296875 15.23828125 C-24.85031431 16.37943087 -27.24432088 16.12525814 -30 16 C-23.51286744 8.80867212 -12.06072836 4.5051466 -2.74609375 2.51953125 C-1.88177734 2.26236328 -1.88177734 2.26236328 -1 2 C-0.67 1.34 -0.34 0.68 0 0 Z " fill="#9F9F9F" transform="translate(655,417)"/>
<path d="M0 0 C4.455 0.99 4.455 0.99 9 2 C9 1.34 9 0.68 9 0 C12.14737182 0.69941596 15.02588876 1.76078698 18 3 C18 4.65 18 6.3 18 8 C18.66 8 19.32 8 20 8 C21.6875 10.3125 21.6875 10.3125 23 13 C22.67 13.99 22.34 14.98 22 16 C21.855625 15.236875 21.71125 14.47375 21.5625 13.6875 C19.39076892 9.95212255 16.9217248 9.62907285 12.8984375 8.48046875 C12.27195312 8.32191406 11.64546875 8.16335938 11 8 C11 7.34 11 6.68 11 6 C10.13375 5.71125 9.2675 5.4225 8.375 5.125 C5.25 4.08333333 2.125 3.04166667 -1 2 C-0.67 1.34 -0.34 0.68 0 0 Z " fill="#141414" transform="translate(490,654)"/>
<path d="M0 0 C-18.125 9.0625 -18.125 9.0625 -21.10546875 10.54296875 C-23.01452121 11.50393578 -24.91342349 12.48537566 -26.80078125 13.48828125 C-27.67089844 13.94589844 -28.54101562 14.40351563 -29.4375 14.875 C-30.19933594 15.28492188 -30.96117187 15.69484375 -31.74609375 16.1171875 C-34.30731489 17.12036944 -36.273049 17.16352087 -39 17 C-39 16.34 -39 15.68 -39 15 C-32.54031293 11.39748221 -26.20773928 9.58570264 -19 8 C-19 7.34 -19 6.68 -19 6 C-18.18015625 5.66226562 -17.3603125 5.32453125 -16.515625 4.9765625 C-15.43796875 4.53054688 -14.3603125 4.08453125 -13.25 3.625 C-11.64898438 2.96371094 -11.64898438 2.96371094 -10.015625 2.2890625 C-7.09113874 1.10069712 -7.09113874 1.10069712 -4.796875 -0.2265625 C-3 -1 -3 -1 0 0 Z " fill="#909090" transform="translate(595,451)"/>
<path d="M0 0 C6.625 -0.25 6.625 -0.25 10 2 C10 3.32 10 4.64 10 6 C6.78548731 7.60725635 3.56387464 7.05748185 0 7 C0 4.69 0 2.38 0 0 Z " fill="#313131" transform="translate(511,906)"/>
<path d="M0 0 C-3.37478711 2.46935642 -5.67410519 3.90766314 -9.75 5.0625 C-13.26466952 5.69748242 -13.26466952 5.69748242 -15 9 C-17.125 9.6875 -17.125 9.6875 -19 10 C-18.4375 7.625 -18.4375 7.625 -17 5 C-13.375 3.6875 -13.375 3.6875 -10 3 C-10 2.34 -10 1.68 -10 1 C-8.71073008 0.63720544 -7.41846728 0.28503302 -6.125 -0.0625 C-5.40570312 -0.25972656 -4.68640625 -0.45695312 -3.9453125 -0.66015625 C-2 -1 -2 -1 0 0 Z " fill="#969697" transform="translate(534,481)"/>
<path d="M0 0 C0.33 0 0.66 0 1 0 C1 11.22 1 22.44 1 34 C-0.98 34 -2.96 34 -5 34 C-4.35256836 33.65090576 -3.70513672 33.30181152 -3.03808594 32.94213867 C-0.68918585 31.09078571 -0.68918585 31.09078571 -0.45410156 27.8137207 C-0.4331543 26.53070068 -0.41220703 25.24768066 -0.390625 23.92578125 C-0.37408875 23.2419487 -0.35755249 22.55811615 -0.34051514 21.8535614 C-0.2919968 19.67311664 -0.27065809 17.4933693 -0.25 15.3125 C-0.22184315 13.83264713 -0.1919161 12.3528268 -0.16015625 10.87304688 C-0.08624013 7.24885017 -0.03668748 3.62478626 0 0 Z " fill="#59595A" transform="translate(514,625)"/>
<path d="M0 0 C5.35000402 -0.81413105 7.86440297 0.25681297 12.3125 3.375 C14.70794106 5.15782443 16.88883211 6.88883211 19 9 C14.44684052 8.38188466 10.71540233 6.53234107 6.6875 4.4375 C6.04232422 4.10814453 5.39714844 3.77878906 4.73242188 3.43945312 C3.15214772 2.63175745 1.57567895 1.81662387 0 1 C0 0.67 0 0.34 0 0 Z " fill="#1A1A1A" transform="translate(399,610)"/>
<path d="M0 0 C2.0625 0.4375 2.0625 0.4375 4 1 C0.25 4 0.25 4 -2 4 C-2 4.66 -2 5.32 -2 6 C-3.78810766 6.69670416 -5.58062052 7.38211189 -7.375 8.0625 C-8.37273438 8.44535156 -9.37046875 8.82820313 -10.3984375 9.22265625 C-13 10 -13 10 -15 9 C-13.50146484 8.15115234 -13.50146484 8.15115234 -11.97265625 7.28515625 C-10.66922254 6.5443558 -9.36583975 5.80346575 -8.0625 5.0625 C-7.40314453 4.68931641 -6.74378906 4.31613281 -6.06445312 3.93164062 C-2.84167167 2.23037187 -2.84167167 2.23037187 0 0 Z " fill="#ACACAC" transform="translate(605,441)"/>
<path d="M0 0 C5.60041053 0.42003079 9.588491 2.68576989 14 6 C14 6.33 14 6.66 14 7 C12.35 7 10.7 7 9 7 C8.67 6.01 8.34 5.02 8 4 C5.69 3.67 3.38 3.34 1 3 C0.67 2.01 0.34 1.02 0 0 Z " fill="#1E1E1E" transform="translate(367,594)"/>
<path d="M0 0 C2.64 0 5.28 0 8 0 C8.33 1.32 8.66 2.64 9 4 C6.03 4 3.06 4 0 4 C0 2.68 0 1.36 0 0 Z " fill="#242424" transform="translate(511,897)"/>
<path d="M0 0 C2.31 0.33 4.62 0.66 7 1 C7 1.66 7 2.32 7 3 C8.32 3 9.64 3 11 3 C12.8125 5.3125 12.8125 5.3125 14 8 C13.67 8.99 13.34 9.98 13 11 C12.855625 10.236875 12.71125 9.47375 12.5625 8.6875 C10.39076892 4.95212255 7.9217248 4.62907285 3.8984375 3.48046875 C2.95871094 3.24263672 2.95871094 3.24263672 2 3 C2 2.34 2 1.68 2 1 C1.34 0.67 0.68 0.34 0 0 Z " fill="#212121" transform="translate(499,659)"/>
<path d="M0 0 C4.86077574 0.47654664 7.91705726 1.38272901 12 4 C13.98451771 4.71143088 15.98202112 5.38991336 18 6 C18 6.66 18 7.32 18 8 C13.66695924 7.35534798 10.13327935 5.81074878 6.1875 3.9375 C5.02605469 3.38964844 3.86460937 2.84179688 2.66796875 2.27734375 C1.78753906 1.85582031 0.90710938 1.43429687 0 1 C0 0.67 0 0.34 0 0 Z " fill="#191919" transform="translate(450,635)"/>
<path d="M0 0 C1.65 0.33 3.3 0.66 5 1 C4.67 1.99 4.34 2.98 4 4 C-3.38461538 4.36923077 -3.38461538 4.36923077 -6.5 2.5 C-6.995 2.005 -7.49 1.51 -8 1 C-2.25 0.875 -2.25 0.875 0 2 C0 1.34 0 0.68 0 0 Z " fill="#131313" transform="translate(389,600)"/>
<path d="M0 0 C0.33 0.99 0.66 1.98 1 3 C-1.97180943 4.89865603 -4.51460083 6.35455571 -8 7 C-7.67 6.01 -7.34 5.02 -7 4 C-5.01276732 3.29618843 -3.01222047 2.6288189 -1 2 C-0.67 1.34 -0.34 0.68 0 0 Z " fill="#909191" transform="translate(655,417)"/>
</svg>
