<?xml version="1.0" encoding="utf-8" ?>
<svg xmlns="http://www.w3.org/2000/svg" xmlns:xlink="http://www.w3.org/1999/xlink" width="1024" height="1024">
	<path fill="white" transform="scale(2 2)" d="M106.027 172.256C112.649 165.723 140.65 152.733 149.971 147.313L237.827 97.129C257.328 85.8468 253.001 85.1159 271.49 95.7745L389.014 162.456C394.728 165.689 401.546 168.259 405.963 173.282C406.009 173.334 406.078 173.36 406.136 173.399L406.882 173.292C408.278 175.268 407.379 190.847 407.38 194.13L407.371 336.67C394.46 343.989 381.481 351.209 368.699 358.753L262.398 421.142C260.341 422.309 257.996 423.425 256.134 424.878C252.954 424.566 247.731 420.422 244.841 418.752L221.201 405.008C208.991 397.916 107.194 339.954 105.853 336.469C104.343 332.546 105.201 323.204 105.2 318.903L105.202 218.659C105.203 213.424 104.855 173.624 105.403 172.402L106.027 172.256Z"/>
	<defs>
		<linearGradient id="gradient_0" gradientUnits="userSpaceOnUse" x1="132.00856" y1="357.41736" x2="230.4364" y2="237.26355">
			<stop offset="0" stop-color="#3276BC"/>
			<stop offset="1" stop-color="#8CAFC3"/>
		</linearGradient>
	</defs>
	<path fill="url(#gradient_0)" transform="scale(2 2)" d="M256.134 424.878C252.954 424.566 247.731 420.422 244.841 418.752L221.201 405.008C208.991 397.916 107.194 339.954 105.853 336.469C104.343 332.546 105.201 323.204 105.2 318.903L105.202 218.659C105.203 213.424 104.855 173.624 105.403 172.402L106.027 172.256L240.868 248.94C243.934 250.684 253.447 256.967 256.134 257.523C256.676 259.929 256.146 264.95 256.14 267.686L256.134 424.878Z"/>
	<defs>
		<linearGradient id="gradient_1" gradientUnits="userSpaceOnUse" x1="290.63168" y1="235.59573" x2="370.41144" y2="359.50327">
			<stop offset="0" stop-color="#BFDCE4"/>
			<stop offset="1" stop-color="#8FD0F1"/>
		</linearGradient>
	</defs>
	<path fill="url(#gradient_1)" transform="scale(2 2)" d="M406.136 173.399L406.882 173.292C408.278 175.268 407.379 190.847 407.38 194.13L407.371 336.67C394.46 343.989 381.481 351.209 368.699 358.753L262.398 421.142C260.341 422.309 257.996 423.425 256.134 424.878L256.14 267.686C256.146 264.95 256.676 259.929 256.134 257.523C265.222 250.939 284.357 241.775 294.854 235.905L383.954 185.872C387.698 183.763 404.266 175.476 406.136 173.399Z"/>
</svg>
